Coordinates
version=1
nRows=6
nColumns=36
inDegrees=yes

Units are S.I. units (second, meters, Newtons, ...)
If the header above contains a line with 'inDegrees', this indicates whether rotational values are in degrees (yes) or radians (no).

endheader
time	pelvis_tilt	pelvis_list	pelvis_rotation	pelvis_tx	pelvis_ty	pelvis_tz	hip_flexion_r	hip_adduction_r	hip_rotation_r	knee_angle_r	knee_angle_r_beta	ankle_angle_r	subtalar_angle_r	mtp_angle_r	hip_flexion_l	hip_adduction_l	hip_rotation_l	knee_angle_l	knee_angle_l_beta	ankle_angle_l	subtalar_angle_l	mtp_angle_l	lumbar_extension	lumbar_bending	lumbar_rotation	arm_flex_r	arm_add_r	arm_rot_r	elbow_flex_r	pro_sup_r	arm_flex_l	arm_add_l	arm_rot_l	elbow_flex_l	pro_sup_l
      0.00000000	      2.56488575	     -0.27003600	      1.47551406	     -0.12396705	      0.91596946	      0.06143819	      4.79130402	     -7.06386546	    -10.51182073	     12.13817002	      0.21185103	      8.31125096	     -5.65234400	     -7.10082032	      2.31506334	    -11.03493023	    -12.33063617	      8.76257330	      0.15293576	      1.79018795	     -4.64769271	     -7.10082032	     -5.06368662	     -4.60249729	     -3.45607552	     30.41455235	     10.89843418	     61.19600051	    132.21793567	    107.99784719	     28.86104558	      5.48778115	     52.50573310	    125.27720476	    105.99872502
      0.01666670	      1.83688050	     -0.33341700	      1.14285535	     -0.12041470	      0.91767032	      0.06570454	      5.21310879	     -6.48491203	    -11.13691104	     10.92310950	      0.19064423	      8.91008574	     -4.85596715	     -7.10634579	      2.83927258	    -11.06702081	    -14.17301471	      8.16461805	      0.14249947	      1.24894471	     -4.69847668	     -7.10634579	     -3.49749967	     -4.59876728	     -2.85552971	     30.36066067	     10.60100803	     62.13491971	    133.81484924	    107.83166319	     28.65178950	      4.94690947	     54.11159437	    127.55661280	    105.71344079
      0.03333330	      1.17086004	     -0.45179037	      0.65786203	     -0.11794019	      0.91621989	      0.06754197	      5.78571008	     -6.01167923	    -11.70665013	     10.53361252	      0.18384622	      7.70644751	     -5.34562421	     -7.18065755	      3.62805267	    -11.22307687	    -14.61825206	      8.49874429	      0.14833107	      0.64860181	     -4.51711952	     -7.18065755	     -2.72247357	     -4.49826213	     -1.80453783	     29.33708589	     10.40553985	     63.56494526	    134.00570822	    106.32042233	     28.26505236	      4.65623137	     55.33430768	    128.82757475	    100.03177898
      0.05000000	      1.15446251	     -0.48745213	      0.32696154	     -0.11707715	      0.91662515	      0.06997954	      5.55346685	     -5.86801200	    -12.16370721	     10.17619768	      0.17760815	      7.85597850	     -4.80322006	     -7.29010102	      3.30551761	    -11.43426348	    -14.86797789	      8.14307717	      0.14212351	     -0.13215525	     -5.08710872	     -7.29010102	     -2.67720334	     -4.62732432	     -1.09815803	     28.45588975	     10.19233185	     64.34088598	    133.75764063	    105.59244703	     28.61729246	      4.55200467	     56.40887737	    128.70725019	     95.87329899
      0.06666670	      0.92164927	     -0.50817054	      0.13314809	     -0.11699913	      0.91714684	      0.07275065	      5.75114587	     -5.64538114	    -12.28801007	     10.04522671	      0.17532228	      7.82743929	     -4.97683910	     -7.30800520	      3.37865765	    -11.57446024	    -14.97865027	      7.89667029	      0.13782290	     -0.91585293	     -5.96831340	     -7.30800520	     -2.67277926	     -4.52800799	     -0.95562716	     27.53959771	      9.88216362	     64.50400240	    133.55327890	    104.06667445	     28.75444855	      4.08411939	     56.75025245	    128.94633039	     93.79388870
      0.08333330	      0.89531509	     -0.51443855	      0.02967052	     -0.11684978	      0.91717984	      0.07408040	      5.72553791	     -5.50675593	    -12.60401633	      9.96782781	      0.17397141	      7.95688391	     -4.73013482	     -7.36491510	      3.31502126	    -11.65744906	    -14.77846516	      7.78477019	      0.13586987	     -1.13945513	     -6.43862036	     -7.36491510	     -2.71379932	     -4.55268586	     -0.80268030	     26.93843953	      9.72517840	     64.22125742	    133.56783132	    104.06382199	     29.08303627	      3.93287691	     56.85748378	    128.54384539	     91.22646464
